<svg width="60px" height="60px" viewBox="0 0 60 60"><g id="right" stroke="none" stroke-width="1" fill="none" fill-rule="evenodd"><path d="M6.90917448,41.3294845 C6.83769725,41.212437 6.76324712,41.0951946 6.68573397,40.9777778 L6.76289975,41.0481461 C4.99532213,37.5958143 4,33.6955382 4,29.5666667 C4,15.4465866 15.6405965,4 30,4 C44.3594035,4 56,15.4465866 56,29.5666667 C56,43.6867468 44.3594035,55.1333333 30,55.1333333 C26.3565321,55.1333333 22.8881035,54.3963917 19.7404572,53.0658224 C-3.68800108,60.6255746 12.4215438,52.3468261 7.38027718,42.1818397 C7.21794615,41.9009974 7.06086812,41.616836 6.90917448,41.3294845 Z" id="Mask" fill="#13215E" transform="translate(30.000000, 30.000000) scale(-1, 1) translate(-30.000000, -30.000000) "></path><path d="M24,22 L35,22 C36.1045695,22 37,22.8954305 37,24 C37,25.1045695 36.1045695,26 35,26 L24,26 C22.8954305,26 22,25.1045695 22,24 C22,22.8954305 22.8954305,22 24,22 Z M24,34 L35,34 C36.1045695,34 37,34.8954305 37,36 C37,37.1045695 36.1045695,38 35,38 L24,38 C22.8954305,38 22,37.1045695 22,36 C22,34.8954305 22.8954305,34 24,34 Z M26,28 L37,28 C38.1045695,28 39,28.8954305 39,30 C39,31.1045695 38.1045695,32 37,32 L26,32 C24.8954305,32 24,31.1045695 24,30 C24,28.8954305 24.8954305,28 26,28 Z" id="Icon" fill="#FFFFFF"></path></g></svg>