<svg xmlns="http://www.w3.org/2000/svg" x="0px" y="0px" width="24" height="24" viewBox="0 0 34 34" fill="#30B6FA" class="cly__qxcdzn-0 dMIsNQ"><g id="Artboard" stroke="none" stroke-width="1" fill="#30B6FA" fill-rule="evenodd"><g id="icons8-email-send-(3)" transform="translate(14.000000, 18.000000) rotate(-315.000000) translate(-14.000000, -18.000000) translate(2.000000, 6.000000)" fill="#30B6FA" fill-rule="nonzero"><path d="M23,0 C22.9040261,0.000658358195 22.8086469,0.0151297178 22.716797,0.0429688 C22.6897605,0.0503069172 22.6630442,0.0587779232 22.636719,0.0683594 L0.6503906,7.060547 L0.6503906,7.064453 C0.259758564,7.21021976 0.000562408886,7.58305754 0,8 C0.000740822587,8.34922483 0.183611423,8.67276525 0.4824219,8.853516 L7.164062,14.154297 L20.373047,3.6269531 L9.845703,16.835938 L15.142578,23.513672 C15.3230843,23.8151719 15.6485961,24 16,24 C16.4169426,23.9994375 16.7897804,23.7402412 16.935547,23.349609 L16.939453,23.349609 L23.9375,1.34375 C23.9446508,1.32377995 23.9511645,1.30358744 23.957031,1.2832031 C23.9848702,1.1913532 23.9993416,1.0959739 24,1 C24,0.44771525 23.5522847,0 23,0 Z" id="Path"></path></g></g></svg>