<svg width="34" height="34" viewBox="0 0 34 34" fill="none" xmlns="http://www.w3.org/2000/svg">
<path d="M28.475 9.83165C28.475 10.5966 28.0642 11.2908 27.4125 11.645L24.9475 12.9766L22.8508 14.0958L18.5017 16.4475C18.0342 16.7025 17.5242 16.83 17 16.83C16.4758 16.83 15.9658 16.7025 15.4983 16.4475L6.58749 11.645C5.93583 11.2908 5.52499 10.5966 5.52499 9.83165C5.52499 9.06665 5.93583 8.37248 6.58749 8.01831L9.37833 6.51665L11.6025 5.31248L15.4983 3.21581C16.4333 2.70581 17.5667 2.70581 18.5017 3.21581L27.4125 8.01831C28.0642 8.37248 28.475 9.06665 28.475 9.83165Z" fill="#6A7097"/>
<path d="M14.025 18.1192L5.7375 13.9825C5.1 13.6567 4.36333 13.6992 3.75417 14.0675C3.145 14.4358 2.79083 15.0875 2.79083 15.7958V23.63C2.79083 24.99 3.54167 26.2083 4.76 26.8175L13.0475 30.9542C13.3308 31.0958 13.6425 31.1667 13.9542 31.1667C14.3225 31.1667 14.6908 31.0675 15.0167 30.855C15.6258 30.4867 15.98 29.835 15.98 29.1267V21.2925C15.9942 19.9467 15.2433 18.7283 14.025 18.1192Z" fill="#6A7097"/>
<path d="M31.2092 15.7958V23.63C31.2092 24.9758 30.4583 26.1942 29.24 26.8033L20.9525 30.9542C20.6692 31.0958 20.3575 31.1667 20.0458 31.1667C19.6775 31.1667 19.3092 31.0675 18.9692 30.855C18.3742 30.4867 18.0058 29.835 18.0058 29.1267V21.3067C18.0058 19.9467 18.7567 18.7283 19.975 18.1192L23.0208 16.6033L25.1458 15.5408L28.2625 13.9825C28.9 13.6567 29.6367 13.685 30.2458 14.0675C30.8408 14.4358 31.2092 15.0875 31.2092 15.7958Z" fill="#6A7097"/>
<path d="M24.9475 12.9767L22.8508 14.0958L9.37833 6.51667L11.6025 5.3125L24.6075 12.6508C24.7492 12.7358 24.8625 12.8492 24.9475 12.9767Z" fill="#6A7097"/>
<path d="M25.1458 15.5408V18.7567C25.1458 19.3375 24.6642 19.8192 24.0833 19.8192C23.5025 19.8192 23.0208 19.3375 23.0208 18.7567V16.6033L25.1458 15.5408Z" fill="#6A7097"/>
</svg>
