<svg width="34" height="34" viewBox="0 0 34 34" fill="none" xmlns="http://www.w3.org/2000/svg">
<path d="M23.7292 5.04331V2.83331C23.7292 2.25248 23.2475 1.77081 22.6667 1.77081C22.0858 1.77081 21.6042 2.25248 21.6042 2.83331V4.95831H12.3958V2.83331C12.3958 2.25248 11.9142 1.77081 11.3333 1.77081C10.7525 1.77081 10.2708 2.25248 10.2708 2.83331V5.04331C6.44584 5.39748 4.59001 7.67831 4.30668 11.0641C4.27834 11.475 4.61834 11.815 5.01501 11.815H28.985C29.3958 11.815 29.7358 11.4608 29.6933 11.0641C29.41 7.67831 27.5542 5.39748 23.7292 5.04331Z" fill="#6A7097"/>
<path d="M28.3333 13.94H5.66667C4.8875 13.94 4.25 14.5775 4.25 15.3567V24.0833C4.25 28.3333 6.375 31.1667 11.3333 31.1667H18.3175C19.295 31.1667 19.975 30.2175 19.6633 29.2967C19.38 28.475 19.1392 27.5683 19.1392 26.9167C19.1392 22.6242 22.6383 19.125 26.9308 19.125C27.3417 19.125 27.7525 19.1533 28.1492 19.2242C28.9992 19.3517 29.7642 18.6858 29.7642 17.8358V15.3708C29.75 14.5775 29.1125 13.94 28.3333 13.94ZM13.0475 25.0892C12.9058 25.2167 12.75 25.3158 12.58 25.3867C12.41 25.4575 12.2258 25.5 12.0417 25.5C11.8575 25.5 11.6733 25.4575 11.5033 25.3867C11.3333 25.3158 11.1775 25.2167 11.0358 25.0892C10.7808 24.82 10.625 24.4517 10.625 24.0833C10.625 23.9983 10.6392 23.8992 10.6533 23.8142C10.6675 23.715 10.6958 23.63 10.7383 23.545C10.7667 23.46 10.8092 23.375 10.8658 23.29C10.9083 23.2192 10.9792 23.1483 11.0358 23.0775C11.1775 22.95 11.3333 22.8508 11.5033 22.78C11.8433 22.6383 12.24 22.6383 12.58 22.78C12.75 22.8508 12.9058 22.95 13.0475 23.0775C13.1042 23.1483 13.175 23.2192 13.2175 23.29C13.2742 23.375 13.3167 23.46 13.345 23.545C13.3875 23.63 13.4158 23.715 13.43 23.8142C13.4442 23.8992 13.4583 23.9983 13.4583 24.0833C13.4583 24.4517 13.3025 24.82 13.0475 25.0892ZM13.0475 20.1308C12.9058 20.2583 12.75 20.3575 12.58 20.4283C12.41 20.4992 12.2258 20.5417 12.0417 20.5417C11.8575 20.5417 11.6733 20.4992 11.5033 20.4283C11.3192 20.3575 11.1775 20.2583 11.0358 20.1308C10.7808 19.8617 10.625 19.4933 10.625 19.125C10.625 18.7567 10.7808 18.3883 11.0358 18.1192C11.1775 17.9917 11.3333 17.8925 11.5033 17.8217C11.8433 17.68 12.24 17.68 12.58 17.8217C12.75 17.8925 12.9058 17.9917 13.0475 18.1192C13.1042 18.19 13.175 18.2608 13.2175 18.3317C13.2742 18.4167 13.3167 18.5017 13.345 18.5867C13.3875 18.6717 13.4158 18.7567 13.43 18.8417C13.4442 18.9408 13.4583 19.04 13.4583 19.125C13.4583 19.4933 13.3025 19.8617 13.0475 20.1308ZM18.0058 20.1308C17.7367 20.3858 17.3825 20.5417 17 20.5417C16.8158 20.5417 16.6317 20.4992 16.4617 20.4283C16.2775 20.3575 16.1358 20.2583 15.9942 20.1308C15.7392 19.8617 15.5833 19.4933 15.5833 19.125C15.5833 19.04 15.5975 18.9408 15.6117 18.8417C15.6258 18.7567 15.6542 18.6717 15.6967 18.5867C15.725 18.5017 15.7675 18.4167 15.8242 18.3317C15.8808 18.2608 15.9375 18.19 15.9942 18.1192C16.5183 17.595 17.4675 17.595 18.0058 18.1192C18.0625 18.19 18.1192 18.2608 18.1758 18.3317C18.2325 18.4167 18.275 18.5017 18.3033 18.5867C18.3458 18.6717 18.3742 18.7567 18.3883 18.8417C18.4025 18.9408 18.4167 19.04 18.4167 19.125C18.4167 19.4933 18.2608 19.8617 18.0058 20.1308Z" fill="#6A7097"/>
<path d="M30.9258 22.9075C28.7158 20.6975 25.1175 20.6975 22.9075 22.9075C20.6975 25.1175 20.6975 28.7158 22.9075 30.9258C25.1175 33.1358 28.7158 33.1358 30.9258 30.9258C33.1358 28.7158 33.1358 25.1175 30.9258 22.9075ZM29.8492 27.71C29.665 27.9083 29.3958 28.0217 29.0983 28.0217H28.05V29.1267C28.05 29.4242 27.9367 29.6792 27.7383 29.8775C27.54 30.0758 27.285 30.1892 26.9875 30.1892C26.4067 30.1892 25.925 29.7075 25.925 29.1267V28.0217H24.8625C24.2817 28.0217 23.8 27.5542 23.8 26.9592C23.8 26.3783 24.2817 25.8967 24.8625 25.8967H25.925V24.8908C25.925 24.31 26.3925 23.8283 26.9875 23.8283C27.5683 23.8283 28.05 24.31 28.05 24.8908V25.8967H29.0983C29.6933 25.8967 30.1608 26.3783 30.1608 26.9592C30.1608 27.2567 30.0475 27.5258 29.8492 27.71Z" fill="#6A7097"/>
</svg>
