<svg width="30" height="30" viewBox="0 0 30 30" fill="none" xmlns="http://www.w3.org/2000/svg">
<path d="M20.9358 0.833313H9.06418C3.90751 0.833313 0.833344 3.90748 0.833344 9.06415V20.9358C0.833344 24.9166 2.66084 27.6508 5.87668 28.685C6.81168 29.0108 7.88834 29.1666 9.06418 29.1666H20.9358C22.1117 29.1666 23.1883 29.0108 24.1233 28.685C27.3392 27.6508 29.1667 24.9166 29.1667 20.9358V9.06415C29.1667 3.90748 26.0925 0.833313 20.9358 0.833313ZM27.0417 20.9358C27.0417 23.9675 25.8517 25.88 23.4575 26.6733C22.0833 23.9675 18.825 22.0408 15 22.0408C11.175 22.0408 7.93084 23.9533 6.54251 26.6733H6.52834C4.16251 25.9083 2.95834 23.9816 2.95834 20.95V9.06415C2.95834 5.06915 5.06918 2.95831 9.06418 2.95831H20.9358C24.9308 2.95831 27.0417 5.06915 27.0417 9.06415V20.9358Z" fill="#6A7097"/>
<path d="M15 9.33331C12.195 9.33331 9.92834 11.6 9.92834 14.405C9.92834 17.21 12.195 19.4908 15 19.4908C17.805 19.4908 20.0717 17.21 20.0717 14.405C20.0717 11.6 17.805 9.33331 15 9.33331Z" fill="#6A7097"/>
</svg>
