<svg width="34" height="34" viewBox="0 0 34 34" fill="none" xmlns="http://www.w3.org/2000/svg">
<path d="M29.5093 11.3474L20.2301 3.92411C18.4168 2.47911 15.5834 2.46494 13.7843 3.90994L4.50511 11.3474C3.17344 12.4099 2.36594 14.5349 2.64928 16.2066L4.43428 26.8883C4.84511 29.2824 7.06928 31.1666 9.49178 31.1666H24.5084C26.9026 31.1666 29.1693 29.2399 29.5801 26.8741L31.3651 16.1924C31.6201 14.5349 30.8126 12.4099 29.5093 11.3474ZM18.0626 25.4999C18.0626 26.0808 17.5809 26.5624 17.0001 26.5624C16.4193 26.5624 15.9376 26.0808 15.9376 25.4999V21.2499C15.9376 20.6691 16.4193 20.1874 17.0001 20.1874C17.5809 20.1874 18.0626 20.6691 18.0626 21.2499V25.4999Z" fill="#6A7097"/>
</svg>
