<svg width="34" height="34" viewBox="0 0 34 34" fill="none" xmlns="http://www.w3.org/2000/svg">
<path d="M11.1633 17.0992C11.1633 16.5184 11.645 16.0367 12.2258 16.0367H19.9892V4.05171C19.975 3.37171 19.4367 2.83337 18.7567 2.83337C10.4125 2.83337 4.59 8.65587 4.59 17C4.59 25.3442 10.4125 31.1667 18.7567 31.1667C19.4225 31.1667 19.975 30.6284 19.975 29.9484V18.1475H12.2258C11.6308 18.1617 11.1633 17.68 11.1633 17.0992Z" fill="#E74C3C"/>
<path d="M29.0983 16.3483L25.075 12.3108C24.6642 11.9 23.9842 11.9 23.5733 12.3108C23.1625 12.7216 23.1625 13.4016 23.5733 13.8125L25.7833 16.0225H19.975V18.1475H25.7692L23.5592 20.3575C23.1483 20.7683 23.1483 21.4483 23.5592 21.8591C23.7717 22.0716 24.0408 22.1708 24.31 22.1708C24.5792 22.1708 24.8483 22.0716 25.0608 21.8591L29.0842 17.8216C29.5092 17.425 29.5092 16.7591 29.0983 16.3483Z" fill="#E74C3C"/>
</svg>
