<svg width="34" height="34" viewBox="0 0 34 34" fill="none" xmlns="http://www.w3.org/2000/svg">
<path d="M26.1658 23.8425L26.7183 28.3192C26.86 29.495 25.5992 30.3167 24.5933 29.7075L19.6917 26.7892C19.3517 26.5908 19.2667 26.1658 19.4508 25.8258C20.1592 24.5225 20.5417 23.0492 20.5417 21.5758C20.5417 16.3908 16.0933 12.1692 10.625 12.1692C9.50584 12.1692 8.415 12.3392 7.395 12.6792C6.87084 12.8492 6.36084 12.3675 6.48834 11.8292C7.7775 6.67251 12.7358 2.83334 18.6575 2.83334C25.5708 2.83334 31.1667 8.06084 31.1667 14.5067C31.1667 18.3317 29.1975 21.7175 26.1658 23.8425Z" fill="#6A7097"/>
<path d="M18.4167 21.5758C18.4167 23.2617 17.7933 24.82 16.745 26.0525C15.3425 27.7525 13.1183 28.8433 10.625 28.8433L6.92751 31.0392C6.30418 31.4217 5.51084 30.8975 5.59584 30.175L5.95001 27.3842C4.05168 26.0667 2.83334 23.9558 2.83334 21.5758C2.83334 19.0825 4.16501 16.8867 6.20501 15.5833C7.46584 14.7617 8.98168 14.2942 10.625 14.2942C14.9317 14.2942 18.4167 17.5525 18.4167 21.5758Z" fill="#6A7097"/>
</svg>
