<svg width="34" height="34" viewBox="0 0 34 34" fill="none" xmlns="http://www.w3.org/2000/svg">
<path d="M24.8342 11.0075C24.735 10.9933 24.6358 10.9933 24.5367 11.0075C22.3408 10.9366 20.5983 9.13748 20.5983 6.92748C20.5983 4.67498 22.4258 2.83331 24.6925 2.83331C26.945 2.83331 28.7867 4.66081 28.7867 6.92748C28.7725 9.13748 27.03 10.9366 24.8342 11.0075Z" fill="#6A7097"/>
<path d="M29.4525 20.825C27.8658 21.8875 25.6417 22.2841 23.5875 22.015C24.1258 20.8533 24.4092 19.5641 24.4233 18.2041C24.4233 16.7875 24.1117 15.4416 23.5167 14.2658C25.6133 13.9825 27.8375 14.3791 29.4383 15.4416C31.6767 16.915 31.6767 19.3375 29.4525 20.825Z" fill="#6A7097"/>
<path d="M9.12333 11.0075C9.2225 10.9933 9.32166 10.9933 9.42083 11.0075C11.6167 10.9366 13.3592 9.13748 13.3592 6.92748C13.3592 4.66081 11.5317 2.83331 9.265 2.83331C7.0125 2.83331 5.185 4.66081 5.185 6.92748C5.185 9.13748 6.9275 10.9366 9.12333 11.0075Z" fill="#6A7097"/>
<path d="M9.27915 18.2042C9.27915 19.5783 9.57665 20.8817 10.115 22.0575C8.11748 22.27 6.03498 21.845 4.50498 20.8392C2.26665 19.3517 2.26665 16.9292 4.50498 15.4417C6.02082 14.4217 8.15998 14.0108 10.1717 14.2375C9.59082 15.4275 9.27915 16.7733 9.27915 18.2042Z" fill="#6A7097"/>
<path d="M17.17 22.4825C17.0567 22.4683 16.9292 22.4683 16.8017 22.4825C14.195 22.3975 12.1125 20.2583 12.1125 17.6233C12.1267 14.9317 14.2942 12.75 17 12.75C19.6917 12.75 21.8733 14.9317 21.8733 17.6233C21.8592 20.2583 19.7908 22.3975 17.17 22.4825Z" fill="#6A7097"/>
<path d="M12.5658 25.415C10.4267 26.8458 10.4267 29.1975 12.5658 30.6142C15.0025 32.2433 18.9975 32.2433 21.4342 30.6142C23.5733 29.1833 23.5733 26.8317 21.4342 25.415C19.0117 23.7858 15.0167 23.7858 12.5658 25.415Z" fill="#6A7097"/>
</svg>
