<svg width="34" height="34" viewBox="0 0 34 34" fill="none" xmlns="http://www.w3.org/2000/svg">
<path d="M24.0833 4.95831H9.91668C5.66668 4.95831 2.83334 7.08331 2.83334 12.0416V21.9583C2.83334 26.9166 5.66668 29.0416 9.91668 29.0416H24.0833C28.3333 29.0416 31.1667 26.9166 31.1667 21.9583V12.0416C31.1667 7.08331 28.3333 4.95831 24.0833 4.95831ZM24.7492 13.5858L20.315 17.1275C19.38 17.8783 18.19 18.2466 17 18.2466C15.81 18.2466 14.6058 17.8783 13.685 17.1275L9.25084 13.5858C8.79751 13.2175 8.72668 12.5375 9.08084 12.0841C9.44918 11.6308 10.115 11.5458 10.5683 11.9141L15.0025 15.4558C16.0792 16.32 17.9067 16.32 18.9833 15.4558L23.4175 11.9141C23.8708 11.5458 24.5508 11.6166 24.905 12.0841C25.2733 12.5375 25.2025 13.2175 24.7492 13.5858Z" fill="#6A7097"/>
</svg>
