<svg width="35" height="34" viewBox="0 0 35 34" fill="none" xmlns="http://www.w3.org/2000/svg">
<path d="M25.565 2.83331H8.565C6.21334 2.83331 4.315 4.71748 4.315 7.04081V22.4966C4.315 24.82 6.21334 26.7183 8.565 26.7183H9.64167C10.7608 26.7183 11.8517 27.1575 12.645 27.9508L15.0675 30.345C16.1725 31.4358 17.9575 31.4358 19.0625 30.345L21.485 27.9508C22.2783 27.1575 23.3692 26.7183 24.4883 26.7183H25.565C27.9167 26.7183 29.815 24.82 29.815 22.4966V7.04081C29.815 4.71748 27.9167 2.83331 25.565 2.83331ZM17.065 7.86248C18.595 7.86248 19.8275 9.10915 19.8275 10.625C19.8275 12.1266 18.6375 13.3308 17.1642 13.3875C17.1075 13.3875 17.0225 13.3875 16.9517 13.3875C15.4642 13.3308 14.2883 12.1266 14.2883 10.625C14.3025 9.10915 15.535 7.86248 17.065 7.86248ZM20.9608 20.8108C18.8217 22.2416 15.3083 22.2416 13.1692 20.8108C11.285 19.5641 11.285 17.4958 13.1692 16.235C15.3225 14.8041 18.8358 14.8041 20.9608 16.235C22.845 17.4958 22.845 19.55 20.9608 20.8108Z" fill="#6A7097"/>
</svg>
